# xmcd
#
# Track frame offsets:
#	150
#	14960
#	38113
#	58164
#	78161
#	95909
#	112367
#	132033
#	148903
#	174877
#	189018
#
# Disc length: 2857 seconds
#
# Revision: 0
# Processed by: cddbd v1.5.2PL0 Copyright (c) Steve Scherf et al.
# Submitted via: EasyCDDAExtractor 16.0.8.1
#
DISCID=9b0b270b
DTITLE=Σωτήρης Αλεξάκης - Σωτήρης Αλεξάκης and οι Ομερτά
DYEAR=2017
DGENRE=
TTITLE0=Σινεμά από τις στάχτες
TTITLE1=Στιγμές
TTITLE2=Γλυκό μου αηδόνι
TTITLE3=Όσους κούρασε η αγάπη
TTITLE4=Κρητικό Τραγούδι
TTITLE5=Ξημερώματα
TTITLE6=Troy
TTITLE7=Η μέρα που πέφτει
TTITLE8=Απόψε
TTITLE9=Ο έρημος
TTITLE10=Χωρίς φωνή
EXTD=
EXTT0=
EXTT1=
EXTT2=
EXTT3=
EXTT4=
EXTT5=
EXTT6=
EXTT7=
EXTT8=
EXTT9=
EXTT10=
PLAYORDER=
